<svg xmlns="http://www.w3.org/2000/svg" xmlns:xlink="http://www.w3.org/1999/xlink" width="271.598" height="48.045" viewBox="0 0 271.598 48.045">
  <defs>
    <clipPath id="clip-path">
      <path id="Path_8477" data-name="Path 8477" d="M7.006,7.967A24.018,24.018,0,0,0,.6,21.418v6.406a23.475,23.475,0,0,0,7.26,14.2,22.439,22.439,0,0,0,10.249,5.552A19.892,19.892,0,0,0,36.792,41.6,20.212,20.212,0,0,0,42.343,29V26.436a20.583,20.583,0,0,0-3.2-9.822A16.636,16.636,0,0,1,13.091,36.685a23.919,23.919,0,0,1-3.31-4.057A20.5,20.5,0,0,1,31.133,1.561,23.09,23.09,0,0,0,24.514.6,23.734,23.734,0,0,0,7.006,7.967" transform="translate(-0.6 -0.597)"/>
    </clipPath>
    <linearGradient id="linear-gradient" x1="-11.461" y1="1.565" x2="-11.449" y2="1.565" gradientUnits="objectBoundingBox">
      <stop offset="0" stop-color="#6fbe44"/>
      <stop offset="0.093" stop-color="#8dc63f"/>
      <stop offset="0.149" stop-color="#90c747"/>
      <stop offset="0.234" stop-color="#99ca5b"/>
      <stop offset="0.337" stop-color="#a8cf7d"/>
      <stop offset="0.453" stop-color="#bcd6ac"/>
      <stop offset="0.512" stop-color="#c8dac7"/>
      <stop offset="0.553" stop-color="#b1cab4"/>
      <stop offset="0.671" stop-color="#72a082"/>
      <stop offset="0.779" stop-color="#417f5a"/>
      <stop offset="0.874" stop-color="#1e673d"/>
      <stop offset="0.95" stop-color="#08582b"/>
      <stop offset="1" stop-color="#005325"/>
    </linearGradient>
    <clipPath id="clip-path-2">
      <path id="Path_8479" data-name="Path 8479" d="M27.491,1.6a20.332,20.332,0,0,0-16.655,8.754A20.859,20.859,0,0,0,7.1,21.884v.641a18.5,18.5,0,0,0,1.281,6.833,17.046,17.046,0,0,1,3.95-16.121A16.693,16.693,0,0,1,35.925,12.6a19.184,19.184,0,0,1,2.028,2.135c5.658,6.939,6.726,17.3,1.174,25.089a20.3,20.3,0,0,1-17.082,8.648,10.979,10.979,0,0,0,1.815.107h1.281A23.281,23.281,0,0,0,41.8,41.208a23.939,23.939,0,0,0-.641-33.843,19.448,19.448,0,0,0-7.9-4.911A20.341,20.341,0,0,0,27.491,1.6Z" transform="translate(-7.1 -1.6)"/>
    </clipPath>
    <linearGradient id="linear-gradient-2" x1="-12.071" y1="1.566" x2="-12.059" y2="1.566" xlink:href="#linear-gradient"/>
  </defs>
  <g id="logo-black" transform="translate(-0.6 -0.597)">
    <g id="Group_240" data-name="Group 240" transform="translate(57.61 13.625)">
      <path id="Path_8470" data-name="Path 8470" d="M108.442,25.8l2.883-5.018a39.359,39.359,0,0,0,2.349-4.8,51.268,51.268,0,0,0,2.242,4.8l2.776,5.018Zm-19.857-3.1H80.364V15.555h8.221c5.445,0,7.26.534,7.26,3.523,0,3.31-2.242,3.63-7.26,3.63M116.022,13.1h-4.164L101.075,31.356,96.591,27.3a10.1,10.1,0,0,0-3.843-2.349c4.8-.747,7.473-2.349,7.473-5.979,0-4.057-3.416-5.765-11-5.765H76.2V33.7h4.164V25.164H85.7c2.669,0,4.164.534,6.726,2.455L98.833,33.7h4.911l3.31-5.658h13.025l3.2,5.658h4.377Z" transform="translate(-52.499 -12.78)" fill="#20292a"/>
      <path id="Path_8471" data-name="Path 8471" d="M177.791,31.256H161.564V24.21h13.452v-.854a7.048,7.048,0,0,1,.107-1.495H161.564V15.455h16.228a12.094,12.094,0,0,1,3.1-2.455H157.4V33.711h23.381a11.15,11.15,0,0,1-2.989-2.455" transform="translate(-47.01 -12.786)" fill="#20292a"/>
      <path id="Path_8472" data-name="Path 8472" d="M235.923,31.249c6.726,0,9.822-1.6,9.822-7.687s-2.776-8.007-9.822-8.007H228.77V31.249h7.153ZM224.607,13.1h11.85c8.968,0,13.559,3.31,13.559,10.249,0,6.726-4.27,10.356-13.665,10.356H224.5l.107-20.6Z" transform="translate(-42.474 -12.78)" fill="#20292a"/>
      <path id="Path_8473" data-name="Path 8473" d="M207.474,25.825l2.883-5.018a39.359,39.359,0,0,0,2.349-4.8,51.266,51.266,0,0,0,2.242,4.8l2.776,5.018Zm7.58-12.7H210.89L200,31.483h0c-1.281.107-4.27.32-7.9.32-8.968,0-11.423-3.2-11.423-8.221s2.242-8.221,11.744-8.221c4.27,0,6.406.107,7.58.214V13.12a77.181,77.181,0,0,0-8.007-.32c-10.463,0-15.694,3.95-15.694,10.783s5.338,10.783,15.373,10.783c3.95,0,9.822-.32,11.21-.427l3.31-5.658h13.025l3.2,5.658H226.8Z" transform="translate(-45.732 -12.8)" fill="#20292a"/>
      <path id="Path_8474" data-name="Path 8474" d="M54,13.1H75.993v2.455H58.164v7.26H74.5v2.242H58.164V33.7H54Z" transform="translate(-54 -12.78)" fill="#20292a"/>
      <path id="Path_8475" data-name="Path 8475" d="M151.016,13.1l-7.9,13.559c-.641,1.174-1.495,3.1-1.922,4.057-.427-.961-1.281-2.776-1.922-4.057L131.479,13.1H125.5V33.7h4.164V21.748c0-2.028-.427-5.765-.427-5.765s1.6,3.523,2.776,5.445L139.059,33.6h4.377l7.046-12.171c1.068-1.922,2.776-5.445,2.776-5.445s-.427,3.63-.427,5.765V33.7h4.164V13.1Z" transform="translate(-49.166 -12.78)" fill="#20292a"/>
    </g>
    <g id="Group_243" data-name="Group 243" transform="translate(0.6 0.597)">
      <g id="Group_242" data-name="Group 242">
        <g id="Group_241" data-name="Group 241" clip-path="url(#clip-path)">
          <path id="Path_8476" data-name="Path 8476" d="M-22,29.483,26.149,70.906,68,22.223,19.85-19.2Z" transform="translate(-2.128 -1.935)" fill="url(#linear-gradient)"/>
        </g>
      </g>
    </g>
    <g id="Group_246" data-name="Group 246" transform="translate(7.539 1.668)">
      <g id="Group_245" data-name="Group 245">
        <g id="Group_244" data-name="Group 244" clip-path="url(#clip-path-2)">
          <path id="Path_8478" data-name="Path 8478" d="M75.506,21.649,25.862-18.6-14.6,31.364,35.044,71.612Z" transform="translate(-8.567 -2.966)" fill="url(#linear-gradient-2)"/>
        </g>
      </g>
    </g>
    <g id="Group_247" data-name="Group 247" transform="translate(265.792 13.518)">
      <path id="Path_8480" data-name="Path 8480" d="M251.669,15.476h.641c.427,0,.641-.107.641-.427s-.427-.427-.747-.427h-.534v.854Zm-.641-1.495h1.281c.854,0,1.388.32,1.388,1.068a.941.941,0,0,1-.854.961L253.8,17.5h-.747L252.2,16.01h-.427V17.5h-.641V13.981Zm1.174,4.164a2.458,2.458,0,0,0,0-4.911,2.329,2.329,0,0,0-2.349,2.455,2.393,2.393,0,0,0,2.349,2.455m0-5.445a3.1,3.1,0,1,1-3.2,3.1,3.183,3.183,0,0,1,3.2-3.1" transform="translate(-249 -12.7)" fill="#20292a"/>
    </g>
  </g>
</svg>
