<svg xmlns="http://www.w3.org/2000/svg" xmlns:xlink="http://www.w3.org/1999/xlink" width="254.891" height="126.554" viewBox="0 0 254.891 126.554">
  <defs>
    <clipPath id="clip-path">
      <rect id="Rectangle_242" data-name="Rectangle 242" width="254.891" height="126.554" fill="none"/>
    </clipPath>
  </defs>
  <g id="Group_256" data-name="Group 256" transform="translate(0 0)">
    <path id="Path_8485" data-name="Path 8485" d="M90.533,0l5.356,13.388h6.643l4.352,10.879h-6.643L105.6,37.655h6.643l11.215,28.032h14.421L111.6,0Z" fill="#fff"/>
    <path id="Path_8486" data-name="Path 8486" d="M115.761,0l5.356,13.388H159L164.359,0Z" fill="#fff"/>
    <path id="Path_8487" data-name="Path 8487" d="M130.825,37.655h18.681l5.265-13.388h-29.3Z" fill="#fff"/>
    <path id="Path_8488" data-name="Path 8488" d="M0,124.119l6.543.045.108-15.321,26.06.186.042-5.833L6.692,103.01l.08-11.231L35.261,92l2.356-5.78L.27,85.954Z" fill="#fff"/>
    <g id="Group_255" data-name="Group 255">
      <g id="Group_254" data-name="Group 254" clip-path="url(#clip-path)">
        <path id="Path_8489" data-name="Path 8489" d="M45.6,105.357c.09-12.6,9.194-20.163,23.86-20.059s23.662,7.8,23.573,20.4-9.194,20.164-23.859,20.061-23.663-7.8-23.574-20.4m40.728.288c.064-9.268-6.551-14.494-16.91-14.567S52.316,96.136,52.25,105.4s6.55,14.5,16.962,14.57c10.359.073,17.048-5.06,17.114-14.329" fill="#fff"/>
        <path id="Path_8490" data-name="Path 8490" d="M140.593,125.114,128.859,111.18l-16.084-.112-.1,13.849-6.543-.047.27-38.165,25.952.183c8.887.064,15.4,4.362,15.344,12.268-.047,6.6-4.655,10.6-11.315,11.751l12.276,14.265Zm-8.8-19.528c5.452.038,9.172-1.68,9.205-6.423s-3.661-6.514-9.114-6.552l-19.028-.135-.091,12.975Z" fill="#fff"/>
        <path id="Path_8491" data-name="Path 8491" d="M203.725,117c-3.529,5.591-11.136,9.628-21.605,9.554-15.049-.107-23.99-7.8-23.9-20.4S167.358,85.99,182.3,86.1c9.377.067,15.787,3.6,19.573,7.717l-5.37,3.779c-3.353-3.841-7.811-5.725-14.189-5.77-10.741-.076-17.373,4.782-17.441,14.378s6.6,14.551,17.562,14.629c6.707.048,12.17-1.658,14.983-6l.03-4.361-15.92-.114.04-5.616,22.245.158Z" fill="#fff"/>
        <path id="Path_8492" data-name="Path 8492" d="M254.891,120.2l-.041,5.725-38-.269.27-38.165,37.455.265-2.327,5.777-28.682-.272-.072,10.2,26.061.185-.041,5.725-26.061-.185-.076,10.794Z" fill="#fff"/>
      </g>
    </g>
  </g>
</svg>
