<svg xmlns="http://www.w3.org/2000/svg" xmlns:xlink="http://www.w3.org/1999/xlink" width="205" height="205" viewBox="0 0 205 205">
  <defs>
    <filter id="Ellipse_23" x="0" y="0" width="205" height="205" filterUnits="userSpaceOnUse">
      <feOffset dy="6" input="SourceAlpha"/>
      <feGaussianBlur stdDeviation="4.5" result="blur"/>
      <feFlood flood-opacity="0.333"/>
      <feComposite operator="in" in2="blur"/>
      <feComposite in="SourceGraphic"/>
    </filter>
    <clipPath id="clip-path">
      <rect id="Rectangle_245" data-name="Rectangle 245" width="177.751" height="177.751" fill="none"/>
    </clipPath>
  </defs>
  <g id="Group_326" data-name="Group 326" transform="translate(-732.124 -2772.124)">
    <g transform="matrix(1, 0, 0, 1, 732.12, 2772.12)" filter="url(#Ellipse_23)">
      <circle id="Ellipse_23-2" data-name="Ellipse 23" cx="89" cy="89" r="89" transform="translate(13.5 7.5)" fill="#fff"/>
    </g>
    <g id="Group_259" data-name="Group 259" transform="translate(745.748 2779.514)">
      <path id="Path_8493" data-name="Path 8493" d="M80.2,72.784H62.149L67.357,85.8h6.459L78.048,96.38H71.589L76.8,109.4h6.459l10.905,27.258h14.022L82.63,72.784Z" transform="translate(-9.166 -10.735)"/>
      <path id="Path_8494" data-name="Path 8494" d="M90.924,72.784,96.132,85.8H132.97l5.209-13.019Z" transform="translate(-13.41 -10.735)"/>
      <path id="Path_8495" data-name="Path 8495" d="M107.206,113.481H125.37l5.12-13.019H102Z" transform="translate(-15.044 -14.817)"/>
      <g id="Group_258" data-name="Group 258">
        <g id="Group_257" data-name="Group 257" clip-path="url(#clip-path)">
          <path id="Path_8496" data-name="Path 8496" d="M40.881,54.893l1.432-1.728a1.754,1.754,0,0,1,2.7-.333,1.484,1.484,0,0,1,.638,1.632,1.738,1.738,0,0,1,2.062.327,2.032,2.032,0,0,1,.252,3.09l-1.414,1.707Zm3.491.39c.521-.631.414-1-.074-1.4a.851.851,0,0,0-1.354.16l-.434.525,1.456,1.205Zm2.21,2.655.5-.606c.419-.506.4-1.013-.234-1.54a1.04,1.04,0,0,0-1.68.142l-.41.494Z" transform="translate(-6.03 -7.72)"/>
          <path id="Path_8497" data-name="Path 8497" d="M47.143,47.686,50.687,51.3c.422.431,1.029.837,1.609.27.559-.549.257-1.1-.237-1.6l-3.55-3.624.944-.924,3.563,3.639c.925.945,1.308,2.072.038,3.317-1.251,1.224-2.322.859-3.292-.13L46.2,48.61Z" transform="translate(-6.814 -6.7)"/>
          <rect id="Rectangle_243" data-name="Rectangle 243" width="1.321" height="7.363" transform="translate(44.708 36.952) rotate(-39.612)"/>
          <path id="Path_8498" data-name="Path 8498" d="M56.2,40.215l1.076-.764,3.609,5.084,2.052-1.458.548.991-3.026,2.147Z" transform="translate(-8.288 -5.819)"/>
          <path id="Path_8499" data-name="Path 8499" d="M62.133,36.071l1.666-.95c1.645-.937,2.883-.247,4.029,1.764,1.231,2.159,1.285,3.676-.474,4.679l-1.576.9Zm4.265,4.8.409-.234c.894-.51.819-1.358-.158-3.072-.838-1.47-1.481-1.962-2.4-1.438l-.419.239Z" transform="translate(-9.164 -5.119)"/>
          <path id="Path_8500" data-name="Path 8500" d="M76.8,36.845l-.935-2.43a.548.548,0,0,0-.134-.2l-3.354-3.548,1.373-.529c.8.928,1.78,2.072,2.274,2.746-.073-.94-.1-2.409-.143-3.566l1.3-.5-.122,4.9a.69.69,0,0,0,.051.247l.926,2.4Z" transform="translate(-10.674 -4.25)"/>
          <path id="Path_8501" data-name="Path 8501" d="M85.638,30.257c.715,2.593.321,3.917-1.312,4.368-1.528.422-2.58-.486-3.3-3.111-.705-2.558-.124-3.829,1.34-4.233,1.545-.426,2.6.512,3.275,2.975m-3.316.887c.465,1.683,1,2.614,1.74,2.408.783-.217.753-1.205.268-2.959-.455-1.649-.929-2.442-1.7-2.228s-.743,1.2-.308,2.779" transform="translate(-11.906 -4.009)"/>
          <path id="Path_8502" data-name="Path 8502" d="M89.7,25.689l.819,4.995c.1.6.361,1.276,1.161,1.146.773-.127.841-.749.727-1.447l-.822-5,1.3-.214.824,5.025c.214,1.3-.121,2.446-1.875,2.734-1.727.283-2.393-.631-2.617-2L88.393,25.9Z" transform="translate(-13.037 -3.712)"/>
          <path id="Path_8503" data-name="Path 8503" d="M98.506,28.922l.184,3.132-1.308.078-.434-7.345,2.25-.134a1.852,1.852,0,0,1,2.211,1.883,1.654,1.654,0,0,1-.853,1.729c.585.234.882.7.946,1.785l.017.293a8.7,8.7,0,0,0,.191,1.533l-1.274.075a6.1,6.1,0,0,1-.217-1.543l-.017-.267c-.058-.982-.3-1.3-1.133-1.252Zm-.063-1.065.616-.037c.795-.047,1.084-.407,1.041-1.149a.879.879,0,0,0-1.035-.942l-.746.044Z" transform="translate(-14.299 -3.635)"/>
          <path id="Path_8504" data-name="Path 8504" d="M109.491,30.256l-.534,1.811-1.313-.12,2.371-7.174,1.7.158,1.041,7.487-1.378-.127-.194-1.878Zm1.569-1c-.146-1.428-.269-2.473-.32-3.184l-.032,0c-.152.667-.485,1.747-.879,3.073Z" transform="translate(-15.876 -3.654)"/>
          <path id="Path_8505" data-name="Path 8505" d="M116.825,25.545l1.882.369c1.858.367,2.347,1.7,1.9,3.972-.478,2.441-1.431,3.626-3.42,3.234l-1.782-.35Zm.091,6.425.464.09c1.011.2,1.508-.493,1.889-2.431.327-1.662.162-2.454-.876-2.659l-.474-.093Z" transform="translate(-17.021 -3.768)"/>
          <path id="Path_8506" data-name="Path 8506" d="M124.108,34.713l.412-7.576,1.358.417-.272,3.184c-.084,1-.209,2.1-.35,2.864l.02.005c.3-.689.885-1.662,1.366-2.523l1.548-2.821,1.319.4-3.932,6.5Z" transform="translate(-18.305 -4.002)"/>
          <path id="Path_8507" data-name="Path 8507" d="M130.758,35.273l-1.045,1.571-1.219-.5,4.386-6.146,1.58.653L133.239,38.3l-1.277-.529.368-1.85Zm1.793-.5c.285-1.406.476-2.441.638-3.134l-.03-.012c-.341.592-.98,1.523-1.748,2.674Z" transform="translate(-18.951 -4.453)"/>
          <path id="Path_8508" data-name="Path 8508" d="M135.666,39.375l3.508-6.468,1.315.714c-.6,4.3-.714,5.121-.809,5.48l.01.005c.366-.807.88-1.76,1.455-2.819l.967-1.785,1.035.562-3.508,6.468-1.261-.685c.685-4.56.813-5.379.891-5.722l-.01-.005c-.384.823-.9,1.776-1.529,2.934l-1.023,1.887Z" transform="translate(-20.009 -4.853)"/>
          <path id="Path_8509" data-name="Path 8509" d="M146.949,38.7l-1.3-.883.649-.955,3.7,2.509-.648.955-1.3-.884-3.488,5.137-1.093-.743Z" transform="translate(-21.159 -5.437)"/>
          <path id="Path_8510" data-name="Path 8510" d="M149.192,46.088l-1.451,1.206-1.024-.83,5.962-4.636L154,42.906l-3.3,6.8-1.072-.871.883-1.668Zm1.861.038c.673-1.266,1.153-2.2,1.506-2.821l-.025-.02c-.5.47-1.373,1.181-2.44,2.063Z" transform="translate(-21.639 -6.169)"/>
          <path id="Path_8511" data-name="Path 8511" d="M155.924,54.61l-.71-.708a5.622,5.622,0,0,1,.4-.488,1.5,1.5,0,0,1-1.566-.5c-1.088-1.084-.516-2.447,1.172-4.141,1.9-1.9,3.355-2.08,4.473-.965a2.014,2.014,0,0,1-.009,3.02l-.922-.919a.916.916,0,0,0,.116-1.339c-.6-.6-1.567.035-2.692,1.163-1.211,1.215-1.733,2.025-1.138,2.617.494.493,1.021.263,1.787-.506l.292-.292-.7-.7.795-.8,1.629,1.624Z" transform="translate(-22.638 -6.95)"/>
          <path id="Path_8512" data-name="Path 8512" d="M162.8,57.651l-1.5-1.825-1.652,1.356,1.685,2.05-.98.594-2.407-2.93,5.688-4.672,2.4,2.917-.891.731-1.57-1.911L162.181,55.1l1.5,1.825Z" transform="translate(-23.295 -7.703)"/>
          <path id="Path_8513" data-name="Path 8513" d="M72.729,168.39l2.714,1.248-.344.749-1.87-.859-.713,1.551,1.756.808-.338.737-1.757-.808-1.122,2.439-.847-.39Z" transform="translate(-10.355 -24.836)"/>
          <path id="Path_8514" data-name="Path 8514" d="M78.582,175.1c-.584,1.535-1.407,2.05-2.428,1.662s-1.288-1.283-.7-2.829c.572-1.5,1.449-1.954,2.426-1.582.994.378,1.247,1.317.7,2.749m-2.254-.837c-.379,1-.376,1.591.123,1.781.482.182.871-.258,1.249-1.252s.36-1.534-.127-1.718-.866.191-1.245,1.189" transform="translate(-11.083 -25.401)"/>
          <path id="Path_8515" data-name="Path 8515" d="M80.606,175.006c.224-.709.37-1.169.46-1.483l.841.266c-.02.09-.065.283-.211.745a1.2,1.2,0,0,1,1.4-.448l-.311.983a1.013,1.013,0,0,0-1.474.757l-.738,2.338-.88-.278Z" transform="translate(-11.754 -25.593)"/>
          <path id="Path_8516" data-name="Path 8516" d="M86.356,179.441c-.307,1.227-.841,1.928-2.159,1.6-1.223-.306-1.3-1.114-1.193-1.64l.893.224c-.026.176-.034.551.517.689.618.155.855-.276,1.059-1.092l.067-.269a1,1,0,0,1-1.121.332c-.928-.232-1.141-1.141-.806-2.477.388-1.545,1.149-2.2,2.025-1.984.59.147.737.483.755.726a4.05,4.05,0,0,1,.146-.421l.858.216c-.073.257-.191.7-.344,1.313Zm-1.818-2.429c-.243.968-.106,1.465.354,1.58.574.143.849-.377,1.095-1.354.22-.879.282-1.441-.315-1.59-.483-.121-.871.315-1.134,1.364" transform="translate(-12.237 -25.778)"/>
          <path id="Path_8517" data-name="Path 8517" d="M89.753,178.373c-.124.675-.149,1.373.474,1.485a.681.681,0,0,0,.8-.541l.873.157a1.511,1.511,0,0,1-1.819,1.142c-1.413-.255-1.39-1.512-1.185-2.644.257-1.427.939-2.213,2.051-2.012,1.265.228,1.4,1.26,1.187,2.417-.025.134-.065.323-.089.41Zm1.526-.417c.1-.552.113-1.14-.473-1.246-.672-.121-.856.676-.919.994Z" transform="translate(-13.096 -25.947)"/>
          <path id="Path_8518" data-name="Path 8518" d="M97.5,179.535a1.758,1.758,0,0,1-1.941,1.625c-1.667-.181-1.668-1.76-1.5-3.314.2-1.873.864-3.011,2.236-2.863a1.653,1.653,0,0,1,1.475,1.982l-.925-.1c.007-.205.071-1.005-.651-1.084-.766-.083-1.031.884-1.171,2.185-.128,1.176-.129,2.326.639,2.408.694.075.853-.689.907-.94Z" transform="translate(-13.862 -25.806)"/>
          <path id="Path_8519" data-name="Path 8519" d="M102.7,179.437c-.062,1.639-.678,2.39-1.768,2.349s-1.63-.8-1.567-2.454c.061-1.606.748-2.314,1.792-2.274,1.062.041,1.6.85,1.543,2.38m-2.4-.074c-.041,1.068.152,1.627.685,1.648.515.019.743-.523.783-1.585s-.149-1.568-.669-1.587-.759.46-.8,1.524" transform="translate(-14.655 -26.114)"/>
          <path id="Path_8520" data-name="Path 8520" d="M105.474,175.474l.14,4.17c.019.552.186,1.155.893,1.131s.834-.54.812-1.184l-.14-4.174.937-.032.14,4.188c.037,1.086-.348,1.946-1.74,1.993-1.36.046-1.8-.737-1.84-1.86l-.142-4.2Z" transform="translate(-15.418 -25.867)"/>
          <path id="Path_8521" data-name="Path 8521" d="M111.216,179.513c.107.532.39.963.975.9.562-.061.763-.421.706-.95s-.336-.817-1.153-1.106c-1.048-.368-1.5-.75-1.592-1.633a1.64,1.64,0,0,1,3.268-.281l-.915.1c-.066-.321-.216-.88-.828-.815a.657.657,0,0,0-.605.821c.051.481.29.683,1.044.944,1.119.384,1.62.824,1.724,1.789a1.612,1.612,0,0,1-1.6,1.882,1.631,1.631,0,0,1-1.956-1.55Z" transform="translate(-16.244 -25.805)"/>
          <path id="Path_8522" data-name="Path 8522" d="M116.89,178.775l-.047,1.687-.922.166.323-6.183,1.2-.216,2.488,5.676-.97.175-.638-1.564Zm1.116-1.032c-.488-1.2-.836-2.026-1.021-2.545l-.024.005c.021.549-.014,1.537-.048,2.737Z" transform="translate(-17.097 -25.697)"/>
          <rect id="Rectangle_244" data-name="Rectangle 244" width="0.942" height="1.317" transform="translate(103.745 152.627) rotate(-13.478)"/>
          <path id="Path_8523" data-name="Path 8523" d="M126.833,176.8a1.482,1.482,0,0,1-1.055,1.947c-1.221.353-1.824-.564-2.2-1.857-.344-1.186-.262-2.356.934-2.7a1.424,1.424,0,0,1,1.865,1.049l-.9.261c-.059-.171-.251-.716-.761-.568s-.519.76-.246,1.706c.287.992.624,1.506,1.115,1.364.529-.153.423-.7.381-.949Z" transform="translate(-18.201 -25.678)"/>
          <path id="Path_8524" data-name="Path 8524" d="M131.355,174.325c.562,1.542.276,2.47-.75,2.843s-1.812-.128-2.378-1.681c-.549-1.51-.181-2.425.8-2.783,1-.364,1.8.182,2.327,1.621m-2.252.839c.367,1,.755,1.45,1.257,1.267.484-.176.491-.765.127-1.762s-.731-1.4-1.219-1.218-.529.712-.165,1.714" transform="translate(-18.874 -25.456)"/>
          <path id="Path_8525" data-name="Path 8525" d="M132.818,172.625c-.367-.792-.492-1.06-.585-1.241l.8-.371a4.133,4.133,0,0,1,.24.447,1.071,1.071,0,0,1,.671-.955.884.884,0,0,1,1.118.188,1.178,1.178,0,0,1,.743-1.051c.565-.263,1.166-.2,1.606.751l1.385,2.987-.825.383-1.326-2.858c-.167-.36-.409-.589-.787-.414-.435.2-.416.621-.171,1.149l1.216,2.619-.832.386-1.318-2.842c-.2-.425-.445-.586-.785-.427-.421.2-.442.6-.171,1.184l1.2,2.584-.831.385Z" transform="translate(-19.503 -25.001)"/>
          <path id="Path_8526" data-name="Path 8526" d="M54.493,149.38A63.829,63.829,0,0,1,36.67,67.833l3.26,1.728.625-1.178-7.66-4.061L32.27,65.5l3.222,1.708A65.16,65.16,0,0,0,53.683,150.44l-2.215,2.9,1.061.809,5.262-6.89-1.061-.81Z" transform="translate(-4.07 -9.487)" fill="red"/>
          <path id="Path_8527" data-name="Path 8527" d="M175.176,98.335a65.219,65.219,0,0,0-7.8-30.917l3.228-1.7-.621-1.18-7.672,4.038.621,1.181,3.264-1.719a63.831,63.831,0,0,1-18.193,81.578l-2.223-2.941-1.064.8,5.225,6.917,1.065-.8-2.2-2.912a65.392,65.392,0,0,0,26.367-52.346" transform="translate(-21.345 -9.519)" fill="red"/>
          <path id="Path_8528" data-name="Path 8528" d="M88.876,0a88.876,88.876,0,1,0,88.875,88.876A88.976,88.976,0,0,0,88.876,0M37.389,141q1.043,1.032,2.126,2.022l-8.036,8.925q-1.317-1.2-2.582-2.455Zm2.8,2.624q1.1.974,2.228,1.91l-7.558,9.332q-1.377-1.13-2.706-2.319Zm2.93,2.475q1.145.918,2.326,1.79L38.384,157.6q-1.436-1.058-2.824-2.173Zm3.054,2.321q1.191.857,2.417,1.664l-6.54,10.073q-1.49-.982-2.935-2.021Zm3.17,2.16c.822.529,1.658,1.038,2.5,1.535l-6.006,10.4q-1.538-.9-3.037-1.864Zm3.281,1.989q1.272.728,2.578,1.4l-5.454,10.7q-1.584-.821-3.13-1.7ZM56,154.384q1.309.66,2.646,1.271l-4.887,10.976c-1.084-.492-2.154-1.009-3.213-1.544Zm3.471,1.635q1.341.59,2.71,1.13L57.88,168.365q-1.662-.651-3.291-1.372Zm3.552,1.451q1.371.518,2.766.984L62.082,169.88q-1.7-.561-3.359-1.194Zm3.624,1.263q1.4.446,2.815.835l-3.109,11.605q-1.724-.472-3.419-1.013Zm3.685,1.071q1.417.371,2.856.683l-2.5,11.752q-1.747-.38-3.467-.829Zm3.737.875c.956.2,1.92.37,2.888.529l-1.88,11.867c-1.176-.193-2.346-.4-3.506-.644Zm3.778.673c.964.147,1.936.27,2.912.378l-1.256,11.949c-1.186-.13-2.366-.28-3.536-.458Zm3.809.474q1.455.142,2.928.226l-.629,12q-1.786-.1-3.554-.275Zm3.828.274q1.46.067,2.935.076v12.014q-1.792-.009-3.564-.091Zm3.837.076q1.474-.009,2.934-.076l.629,12q-1.772.083-3.563.091Zm3.835-.124q1.471-.084,2.928-.226l1.256,11.95q-1.767.174-3.555.275Zm3.824-.322c.976-.107,1.947-.231,2.911-.378l1.88,11.869c-1.17.178-2.35.328-3.535.458Zm3.8-.522c.969-.159,1.933-.332,2.889-.529l2.5,11.753c-1.16.24-2.331.451-3.507.644Zm3.77-.721q1.439-.315,2.856-.683l3.11,11.605q-1.72.451-3.468.829Zm3.726-.919q1.419-.39,2.815-.834l3.713,11.426q-1.693.542-3.418,1.013Zm3.673-1.113q1.4-.464,2.766-.984l4.306,11.216q-1.664.63-3.36,1.194Zm3.61-1.3c.913-.358,1.815-.737,2.71-1.13l4.886,10.974q-1.628.717-3.291,1.372Zm3.535-1.494q1.339-.609,2.647-1.271l5.453,10.7c-1.06.535-2.13,1.052-3.213,1.544Zm3.45-1.681q1.3-.678,2.578-1.4l6.006,10.4q-1.545.885-3.13,1.7Zm3.356-1.858q1.267-.744,2.5-1.535l6.541,10.073q-1.5.964-3.038,1.864Zm3.256-2.031q1.225-.808,2.417-1.664l7.059,9.716q-1.444,1.041-2.934,2.021Zm3.146-2.2q1.182-.872,2.326-1.79l7.557,9.332q-1.389,1.115-2.824,2.173Zm3.027-2.355q1.134-.932,2.228-1.91l8.035,8.924q-1.33,1.185-2.706,2.319Zm2.9-2.512q1.084-.988,2.126-2.022l8.492,8.492q-1.266,1.253-2.581,2.455Zm-49.36,18.268a72.415,72.415,0,1,1,72.415-72.415,72.5,72.5,0,0,1-72.415,72.415M32.218,42.415l-9.332-7.558q1.13-1.377,2.318-2.706l8.924,8.036q-.976,1.1-1.91,2.228m-.566.7q-.917,1.145-1.789,2.326l-9.716-7.059Q21.2,36.948,22.32,35.56Zm-2.321,3.054q-.855,1.191-1.664,2.417l-10.072-6.54q.981-1.49,2.021-2.935Zm-2.16,3.17c-.529.822-1.038,1.658-1.534,2.5l-10.4-6.006q.9-1.538,1.864-3.037Zm-1.988,3.281q-.728,1.272-1.4,2.578l-10.7-5.454q.821-1.584,1.705-3.13ZM23.368,56c-.44.873-.866,1.754-1.271,2.646L11.121,53.764c.491-1.084,1.009-2.154,1.544-3.213Zm-1.635,3.471q-.591,1.341-1.13,2.709L9.386,57.88q.651-1.662,1.372-3.291Zm-1.452,3.552q-.518,1.371-.984,2.766L7.871,62.082q.563-1.7,1.194-3.359Zm-1.263,3.624q-.445,1.4-.835,2.815L6.579,66.358q.472-1.724,1.014-3.419Zm-1.071,3.685c-.247.945-.472,1.9-.682,2.856L5.513,70.7q.381-1.747.829-3.467Zm-.875,3.737c-.2.956-.37,1.92-.529,2.888L4.678,75.083c.192-1.176.4-2.346.643-3.506ZM16.4,77.853c-.146.964-.269,1.936-.378,2.912L4.073,79.509c.13-1.186.28-2.366.458-3.536Zm-.473,3.809q-.143,1.455-.227,2.928l-12-.629q.1-1.786.275-3.554Zm-.275,3.828q-.066,1.46-.075,2.935H3.563q.009-1.792.091-3.564Zm-.075,3.837q.009,1.474.075,2.934l-12,.629q-.082-1.772-.091-3.563Zm.123,3.835q.086,1.471.227,2.928L3.977,97.346Q3.8,95.578,3.7,93.791Zm.322,3.824c.108.977.232,1.948.378,2.912l-11.868,1.88c-.179-1.17-.328-2.35-.459-3.535Zm.523,3.8c.159.969.332,1.933.529,2.888l-11.752,2.5c-.24-1.16-.452-2.331-.644-3.507Zm.721,3.77q.315,1.439.682,2.856l-11.605,3.11q-.451-1.72-.829-3.468Zm.918,3.726q.39,1.419.835,2.815L7.592,114.812q-.542-1.693-1.014-3.418Zm1.113,3.673q.464,1.4.984,2.766L9.066,119.029q-.63-1.664-1.194-3.36Zm1.305,3.61q.537,1.37,1.13,2.709l-10.975,4.887q-.717-1.628-1.372-3.291ZM22.1,119.1c.4.893.831,1.774,1.271,2.646l-10.7,5.454c-.535-1.06-1.053-2.13-1.544-3.213Zm1.681,3.45q.676,1.3,1.4,2.578l-10.4,6.006q-.885-1.545-1.705-3.13Zm1.858,3.356c.5.845,1.005,1.68,1.534,2.5L17.1,134.952q-.964-1.5-1.864-3.038Zm2.03,3.256q.809,1.225,1.664,2.417l-9.715,7.059q-1.041-1.444-2.021-2.934Zm2.2,3.146q.872,1.182,1.789,2.326l-9.332,7.557q-1.115-1.389-2.173-2.824Zm2.355,3.027q.931,1.134,1.91,2.228L25.2,145.6q-1.185-1.33-2.318-2.706ZM140.362,36.751q-1.043-1.031-2.126-2.022l8.037-8.925q1.317,1.2,2.581,2.455Zm-2.8-2.623q-1.1-.976-2.228-1.91l7.558-9.332q1.378,1.13,2.706,2.318Zm-2.93-2.476q-1.145-.917-2.326-1.789l7.059-9.716q1.435,1.058,2.824,2.173Zm-3.055-2.321q-1.191-.855-2.417-1.664L135.7,17.594q1.488.981,2.934,2.021Zm-3.17-2.16c-.823-.529-1.658-1.038-2.5-1.534l6.006-10.4q1.538.9,3.038,1.864Zm-3.281-1.988q-1.274-.728-2.578-1.4L128,13.074q1.584.821,3.13,1.705Zm-3.381-1.814c-.873-.44-1.754-.866-2.647-1.271l4.887-10.976c1.084.491,2.153,1.009,3.213,1.544Zm-3.472-1.635q-1.341-.591-2.709-1.13l4.305-11.216q1.664.651,3.291,1.372Zm-3.552-1.452q-1.371-.518-2.766-.984L115.67,7.871q1.7.563,3.36,1.194ZM111.1,19.019q-1.4-.445-2.815-.835l3.11-11.605q1.724.472,3.418,1.014Zm-3.685-1.071q-1.417-.37-2.856-.682l2.5-11.753q1.747.381,3.468.829Zm-3.737-.875c-.957-.2-1.92-.37-2.889-.529l1.88-11.867c1.176.192,2.347.4,3.507.644ZM99.9,16.4c-.964-.146-1.935-.269-2.911-.378L98.242,4.073c1.185.13,2.365.28,3.535.459Zm-3.808-.473q-1.455-.143-2.928-.227l.628-12q1.788.1,3.555.275Zm-3.829-.275q-1.459-.066-2.934-.075V3.563q1.79.009,3.563.091Zm-3.836-.075q-1.474.009-2.935.075l-.629-12q1.774-.082,3.564-.091ZM84.59,15.7q-1.472.086-2.928.227L80.406,3.977Q82.172,3.8,83.96,3.7Zm-3.824.322c-.976.108-1.948.232-2.912.378L75.973,4.532c1.171-.179,2.35-.328,3.536-.459Zm-3.8.523c-.968.159-1.933.332-2.888.529l-2.5-11.752c1.16-.24,2.33-.452,3.506-.644Zm-3.77.721q-1.437.315-2.856.682L67.228,6.343q1.719-.451,3.467-.829Zm-3.726.918q-1.418.39-2.815.835L62.939,7.592q1.694-.542,3.419-1.014ZM65.794,19.3q-1.4.464-2.766.984L58.723,9.066q1.664-.63,3.359-1.194ZM62.186,20.6q-1.37.537-2.71,1.13L54.589,10.758q1.629-.717,3.291-1.372ZM58.65,22.1c-.893.4-1.773.831-2.646,1.271l-5.454-10.7c1.059-.535,2.129-1.053,3.213-1.544ZM55.2,23.778q-1.3.676-2.578,1.4l-6.006-10.4q1.545-.885,3.13-1.705Zm-3.357,1.858c-.844.5-1.68,1.005-2.5,1.534L42.8,17.1q1.5-.964,3.037-1.864Zm-3.256,2.03q-1.225.809-2.417,1.664l-7.059-9.715q1.445-1.041,2.935-2.021Zm-3.145,2.2q-1.182.872-2.326,1.789L35.56,22.32q1.389-1.115,2.824-2.173Zm-3.028,2.355q-1.134.931-2.228,1.91L32.152,25.2q1.33-1.185,2.706-2.318Zm-2.9,2.511q-1.084.988-2.126,2.022L28.9,28.26q1.266-1.253,2.581-2.456ZM161.825,81.662l11.95-1.256q.174,1.766.275,3.554l-12,.629q-.084-1.472-.226-2.928m-.1-.9c-.107-.976-.231-1.948-.378-2.912l11.869-1.88c.178,1.171.328,2.35.458,3.536Zm-.522-3.8c-.159-.968-.332-1.933-.529-2.888l11.753-2.5c.24,1.16.451,2.33.644,3.506Zm-.721-3.77q-.315-1.437-.683-2.856l11.605-3.109q.451,1.719.829,3.467Zm-.919-3.726q-.39-1.418-.835-2.815l11.427-3.713q.541,1.694,1.013,3.419Zm-1.113-3.673q-.464-1.4-.984-2.766l11.216-4.305q.63,1.664,1.194,3.359Zm-1.3-3.609q-.538-1.37-1.13-2.71l10.974-4.887q.717,1.629,1.372,3.291Zm-1.494-3.535q-.609-1.339-1.271-2.646l10.7-5.454c.535,1.059,1.052,2.129,1.544,3.213ZM153.974,55.2q-.678-1.3-1.4-2.578l10.4-6.007q.884,1.546,1.7,3.13Zm-1.858-3.357c-.5-.844-1.005-1.68-1.535-2.5L160.654,42.8q.964,1.5,1.864,3.037Zm-2.031-3.256q-.808-1.225-1.664-2.417l9.716-7.059q1.041,1.445,2.021,2.935Zm-2.2-3.145q-.872-1.182-1.79-2.326l9.332-7.558q1.115,1.389,2.173,2.824Zm-2.355-3.028q-.932-1.134-1.91-2.228l8.924-8.036q1.187,1.33,2.319,2.706Zm0,92.921,9.332,7.558q-1.13,1.378-2.319,2.706l-8.924-8.035q.976-1.1,1.91-2.228m.565-.7q.918-1.145,1.79-2.326l9.715,7.059q-1.058,1.435-2.173,2.824Zm2.321-3.055q.857-1.191,1.664-2.417l10.073,6.541q-.982,1.488-2.021,2.934Zm2.16-3.17q.793-1.234,1.535-2.5l10.4,6.006q-.9,1.538-1.864,3.038Zm1.989-3.281q.728-1.274,1.4-2.578l10.7,5.453q-.821,1.584-1.7,3.13Zm1.814-3.382c.439-.872.865-1.754,1.271-2.646l10.976,4.887c-.492,1.084-1.009,2.153-1.544,3.213Zm1.635-3.471q.59-1.341,1.13-2.709l11.216,4.305q-.651,1.664-1.372,3.291Zm1.451-3.552q.518-1.371.984-2.766l11.426,3.713q-.561,1.7-1.194,3.36Zm1.263-3.624q.445-1.4.835-2.815l11.605,3.11q-.472,1.724-1.013,3.418Zm1.071-3.685q.371-1.417.683-2.856l11.752,2.5q-.38,1.747-.829,3.468Zm.875-3.737c.2-.956.37-1.919.529-2.888l11.867,1.88c-.193,1.176-.4,2.347-.644,3.507Zm.673-3.778c.147-.964.27-1.935.378-2.912l11.949,1.257c-.13,1.185-.28,2.365-.458,3.535Zm.474-3.808q.142-1.457.226-2.928l12,.628q-.1,1.788-.275,3.555Zm.274-3.829q.067-1.46.076-2.934h12.014q-.009,1.79-.091,3.563Zm.076-3.836q-.009-1.474-.076-2.935l12-.629q.083,1.774.091,3.564ZM151.947,31.479l-8.925,8.036q-.988-1.084-2.022-2.126l8.492-8.492q1.253,1.267,2.455,2.582M28.26,28.9l8.491,8.492q-1.031,1.043-2.022,2.126L25.8,31.479Q27,30.162,28.26,28.9M25.8,146.273l8.925-8.037q.988,1.084,2.022,2.126l-8.492,8.492q-1.252-1.266-2.455-2.581m123.688,2.581L141,140.362q1.032-1.043,2.022-2.126l8.925,8.037q-1.2,1.317-2.455,2.581"/>
          <path id="Path_8529" data-name="Path 8529" d="M94.452,37.806A56.646,56.646,0,1,0,151.1,94.452,56.709,56.709,0,0,0,94.452,37.806m0,112.4a55.757,55.757,0,1,1,55.757-55.757,55.82,55.82,0,0,1-55.757,55.757" transform="translate(-5.576 -5.576)"/>
        </g>
      </g>
    </g>
  </g>
</svg>
