<svg xmlns="http://www.w3.org/2000/svg" width="182.999" height="170.933" viewBox="0 0 182.999 170.933">
  <g id="Group_253" data-name="Group 253" transform="translate(0 0)" style="mix-blend-mode: overlay;isolation: isolate">
    <rect id="Rectangle_228" data-name="Rectangle 228" width="1.258" height="183.624" transform="matrix(0.928, -0.372, 0.372, 0.928, 48.513, 0.494)" fill="#ccc"/>
    <rect id="Rectangle_229" data-name="Rectangle 229" width="1.257" height="111.526" transform="translate(58.56 0.491) rotate(-21.866)" fill="#ccc"/>
    <rect id="Rectangle_230" data-name="Rectangle 230" width="1.258" height="183.624" transform="translate(13.369 0.494) rotate(-21.844)" fill="#ccc"/>
    <rect id="Rectangle_231" data-name="Rectangle 231" width="171.505" height="1.258" transform="translate(72.951 159.238) rotate(-68.199)" fill="#ccc"/>
    <rect id="Rectangle_232" data-name="Rectangle 232" width="108.418" height="1.257" transform="matrix(0.371, -0.928, 0.928, 0.371, 141.566, 100.665)" fill="#ccc"/>
    <rect id="Rectangle_233" data-name="Rectangle 233" width="109.895" height="1.258" transform="matrix(0.371, -0.928, 0.928, 0.371, 48.554, 102.035)" fill="#ccc"/>
    <rect id="Rectangle_234" data-name="Rectangle 234" width="25.406" height="1.257" transform="translate(10.903 40.534) rotate(-68.21)" fill="#ccc"/>
    <rect id="Rectangle_235" data-name="Rectangle 235" width="1.259" height="180.323" transform="matrix(0.002, -1, 1, 0.002, 0, 5.047)" fill="#ccc"/>
    <rect id="Rectangle_236" data-name="Rectangle 236" width="1.258" height="155.011" transform="matrix(0.003, -1, 1, 0.003, 12.133, 37.889)" fill="#ccc"/>
    <rect id="Rectangle_237" data-name="Rectangle 237" width="133.673" height="1.258" transform="matrix(1, -0.002, 0.002, 1, 23.01, 63.646)" fill="#ccc"/>
    <rect id="Rectangle_238" data-name="Rectangle 238" width="107.526" height="1.258" transform="matrix(1, -0.002, 0.002, 1, 35.98, 96.044)" fill="#ccc"/>
    <rect id="Rectangle_239" data-name="Rectangle 239" width="36.4" height="1.258" transform="translate(78.862 164.87) rotate(-0.344)" fill="#ccc"/>
    <rect id="Rectangle_240" data-name="Rectangle 240" width="56.21" height="1.257" transform="translate(30.839 52.19) rotate(-68.198)" fill="#ccc"/>
  </g>
</svg>
