<svg xmlns="http://www.w3.org/2000/svg" xmlns:xlink="http://www.w3.org/1999/xlink" width="243.369" height="263.342" viewBox="0 0 243.369 263.342">
  <defs>
    <clipPath id="clip-path">
      <rect id="Rectangle_222" data-name="Rectangle 222" width="240.844" height="131.683" transform="translate(0 0.001)" fill="none"/>
    </clipPath>
    <clipPath id="clip-path-2">
      <rect id="Rectangle_229" data-name="Rectangle 229" width="240.844" height="131.684" transform="translate(2.525 131.659)" fill="none"/>
    </clipPath>
  </defs>
  <g id="Group_249" data-name="Group 249" transform="translate(-1002 -771.657)">
    <g id="Group_247" data-name="Group 247" transform="translate(1002 771.656)">
      <g id="Group_244" data-name="Group 244">
        <g id="Group_243" data-name="Group 243" clip-path="url(#clip-path)">
          <path id="Path_2770" data-name="Path 2770" d="M76.067,193.521A76.8,76.8,0,0,1,54.376,94.273l1.372.766A75.232,75.232,0,0,0,77,192.255Z" fill="#fff"/>
          <rect id="Rectangle_216" data-name="Rectangle 216" width="10.214" height="1.572" transform="translate(72.818 196.455) rotate(-52.627)" fill="#be0d30"/>
          <rect id="Rectangle_217" data-name="Rectangle 217" width="1.572" height="10.214" transform="translate(50.201 92.968) rotate(-62.065)" fill="#fff"/>
          <path id="Path_2771" data-name="Path 2771" d="M58.038,82.554l1.687-2.036a2.067,2.067,0,0,1,3.179-.394,1.75,1.75,0,0,1,.751,1.923,2.049,2.049,0,0,1,2.43.385,2.393,2.393,0,0,1,.3,3.641l-1.665,2.011Zm4.113.459c.615-.744.489-1.175-.086-1.651a1,1,0,0,0-1.595.188l-.512.619,1.715,1.42Zm2.6,3.127.592-.714c.493-.6.472-1.193-.278-1.815a1.224,1.224,0,0,0-1.979.167l-.483.583Z" fill="#fff"/>
          <path id="Path_2772" data-name="Path 2772" d="M64.492,75.264l4.175,4.262c.5.509,1.213.987,1.895.319.659-.646.3-1.292-.279-1.888L66.1,73.688,67.213,72.6l4.2,4.288c1.09,1.112,1.541,2.441.045,3.907-1.474,1.442-2.735,1.013-3.878-.154l-4.2-4.287Z" fill="#fff"/>
          <rect id="Rectangle_218" data-name="Rectangle 218" width="1.555" height="8.675" transform="matrix(0.77, -0.638, 0.638, 0.77, 69.65, 70.511)" fill="#fff"/>
          <path id="Path_2773" data-name="Path 2773" d="M73.421,67.5l1.268-.9,4.251,5.99,2.418-1.717L82,72.042l-3.564,2.529Z" fill="#fff"/>
          <path id="Path_2774" data-name="Path 2774" d="M80.1,64.637l-1.588.952-.7-1.165,4.511-2.7.7,1.166-1.588.951L85.2,70.107l-1.333.8Z" fill="#fff"/>
          <path id="Path_2775" data-name="Path 2775" d="M89.925,59.52l-1.707.721-.528-1.252,4.846-2.047.53,1.252-1.708.721L94.2,65.652l-1.432.6Z" fill="#fff"/>
          <path id="Path_2776" data-name="Path 2776" d="M101.288,58.543c.952,3.024.545,4.6-1.362,5.2-1.78.561-3.058-.463-4.021-3.525-.939-2.984-.307-4.5,1.4-5.041,1.8-.568,3.081.494,3.984,3.366M97.42,59.727c.617,1.962,1.283,3.036,2.15,2.763.914-.288.834-1.451.191-3.5-.605-1.922-1.2-2.835-2.1-2.553s-.825,1.443-.245,3.287" fill="#fff"/>
          <path id="Path_2777" data-name="Path 2777" d="M107,52.891l2.232-.336c2.2-.331,3.272.953,3.678,3.649.434,2.894-.15,4.584-2.508,4.939l-2.115.317Zm2.647,7.083.548-.082c1.2-.18,1.477-1.145,1.132-3.443-.3-1.972-.794-2.784-2.028-2.6l-.56.084Z" fill="#fff"/>
          <path id="Path_2778" data-name="Path 2778" d="M119.956,56.414l-2.779.138.125,2.515,3.12-.156-.124,1.344-4.46.222-.431-8.659,4.441-.22.067,1.357L117,53.1l.105,2.108,2.779-.138Z" fill="#fff"/>
          <path id="Path_2779" data-name="Path 2779" d="M122.873,51.6l1.554.062L124.13,59l2.966.121-.2,1.317-4.369-.176Z" fill="#fff"/>
          <rect id="Rectangle_219" data-name="Rectangle 219" width="8.674" height="1.555" transform="translate(128.932 60.664) rotate(-83.453)" fill="#fff"/>
          <path id="Path_2780" data-name="Path 2780" d="M134.489,61.462l-.429-8.924,1.64.324.066,3.763c.022,1.181.008,2.487-.065,3.4l.024.005c.274-.844.837-2.054,1.295-3.121l1.475-3.49,1.594.315-3.824,8.083Z" fill="#fff"/>
          <path id="Path_2781" data-name="Path 2781" d="M145.43,60.282l-2.665-.8-.726,2.411,2.993.9-.569,1.225-4.276-1.288,2.5-8.3,4.258,1.281-.392,1.3-2.79-.84-.608,2.021,2.664.8Z" fill="#fff"/>
          <path id="Path_2782" data-name="Path 2782" d="M149.37,61.926l-1.41,3.418-1.425-.588,3.3-8.015,2.455,1.012a2.182,2.182,0,0,1,1.379,3.131,1.953,1.953,0,0,1-1.793,1.4c.5.547.578,1.194.09,2.379l-.132.32a10.275,10.275,0,0,0-.584,1.722l-1.388-.572a7.136,7.136,0,0,1,.56-1.749l.12-.291c.442-1.072.346-1.535-.561-1.909Zm.479-1.162.673.277a1.107,1.107,0,0,0,1.693-.686,1.033,1.033,0,0,0-.614-1.528l-.815-.336Z" fill="#fff"/>
          <path id="Path_2783" data-name="Path 2783" d="M162.654,69.375c.783-1.256,1.7-2.678,2.238-3.5l-.029-.019c-1.125,1.239-3.078,3.468-5.043,5.55l-1.189-.74c1.025-2.442,2.248-5.346,2.9-6.916l-.041-.025c-.49.886-1.418,2.448-2.211,3.719l-1.625,2.611-1.2-.75,4.582-7.357L163,63.174c-.881,2.274-1.822,4.538-2.342,5.7l.01.007c.771-.906,2.613-2.835,4.207-4.542l1.924,1.2-4.58,7.357-1.266-.786Z" fill="#fff"/>
          <path id="Path_2784" data-name="Path 2784" d="M171.168,74.3c-1.981,2.479-3.516,3.021-5.081,1.772-1.459-1.165-1.32-2.8.684-5.305,1.951-2.446,3.566-2.77,4.965-1.654,1.478,1.18,1.31,2.834-.568,5.187m-3.145-2.551c-1.283,1.608-1.8,2.76-1.092,3.329.748.6,1.67-.118,3.01-1.794,1.256-1.576,1.684-2.578.947-3.166s-1.658.121-2.865,1.631" fill="#fff"/>
          <path id="Path_2785" data-name="Path 2785" d="M173.808,77.718l-2.6,2.635-1.1-1.084,6.086-6.178,1.89,1.862a2.181,2.181,0,0,1,.1,3.421,1.95,1.95,0,0,1-2.187.619c.257.7.086,1.325-.815,2.237l-.242.247a10.185,10.185,0,0,0-1.191,1.375L172.681,81.8a7.277,7.277,0,0,1,1.178-1.41l.223-.224c.812-.826.9-1.292.2-1.98Zm.883-.9.518.511a1.109,1.109,0,0,0,1.828,0,1.038,1.038,0,0,0,.008-1.649l-.629-.618Z" fill="#fff"/>
          <path id="Path_2786" data-name="Path 2786" d="M180.984,85.384,179.2,83.248l-1.934,1.612,2,2.4-1.148.709-2.858-3.429,6.658-5.55,2.846,3.414-1.043.87-1.865-2.238-1.621,1.351,1.781,2.137Z" fill="#fff"/>
          <path id="Path_2787" data-name="Path 2787" d="M166.956,193.765l-.924-1.271a75.235,75.235,0,0,0,21.69-97.251l1.375-.762a76.806,76.806,0,0,1-22.141,99.284" fill="#fff"/>
          <rect id="Rectangle_220" data-name="Rectangle 220" width="10.214" height="1.571" transform="translate(183.506 96.557) rotate(-27.772)" fill="#fff"/>
          <rect id="Rectangle_221" data-name="Rectangle 221" width="1.571" height="10.214" transform="translate(162.778 189.513) rotate(-37.06)" fill="#be0d30"/>
          <path id="Path_2788" data-name="Path 2788" d="M121.685,218.045a86.362,86.362,0,1,1,86.362-86.362,86.459,86.459,0,0,1-86.362,86.362m0-171.676A85.315,85.315,0,1,0,207,131.683a85.411,85.411,0,0,0-85.315-85.314" fill="#fff"/>
          <path id="Path_2789" data-name="Path 2789" d="M121.685,236.39A104.707,104.707,0,1,1,226.392,131.684,104.825,104.825,0,0,1,121.685,236.39m0-205.223A100.516,100.516,0,1,0,222.2,131.684,100.631,100.631,0,0,0,121.685,31.167" fill="#fff"/>
          <path id="Path_2790" data-name="Path 2790" d="M121.685,198.42a66.736,66.736,0,1,1,66.736-66.736,66.811,66.811,0,0,1-66.736,66.736m0-132.425a65.689,65.689,0,1,0,65.689,65.689A65.763,65.763,0,0,0,121.685,66" fill="#fff"/>
        </g>
      </g>
      <g id="Group_246" data-name="Group 246">
        <g id="Group_245" data-name="Group 245" clip-path="url(#clip-path-2)">
          <path id="Path_2791" data-name="Path 2791" d="M167.3,69.822a76.8,76.8,0,0,1,21.691,99.248l-1.372-.766a75.231,75.231,0,0,0-21.249-97.215Z" fill="#fff"/>
          <rect id="Rectangle_223" data-name="Rectangle 223" width="10.214" height="1.572" transform="translate(163.1 74.052) rotate(-52.627)" fill="#be0d30"/>
          <rect id="Rectangle_224" data-name="Rectangle 224" width="1.572" height="10.214" transform="translate(183.407 166.979) rotate(-62.065)" fill="#fff"/>
          <path id="Path_2792" data-name="Path 2792" d="M185.33,180.789l-1.687,2.036a2.067,2.067,0,0,1-3.179.394,1.75,1.75,0,0,1-.751-1.923,2.049,2.049,0,0,1-2.43-.385,2.393,2.393,0,0,1-.3-3.641l1.665-2.011Zm-4.113-.459c-.615.744-.489,1.175.086,1.651a1,1,0,0,0,1.6-.188l.512-.619-1.715-1.42Zm-2.6-3.127-.592.714c-.493.6-.472,1.193.278,1.815a1.224,1.224,0,0,0,1.979-.167l.483-.583Z" fill="#fff"/>
          <path id="Path_2793" data-name="Path 2793" d="M178.876,188.079l-4.175-4.262c-.5-.509-1.213-.987-1.9-.319-.659.646-.3,1.292.279,1.888l4.182,4.269-1.112,1.089-4.2-4.288c-1.09-1.112-1.541-2.441-.045-3.907,1.474-1.442,2.735-1.013,3.878.154l4.2,4.287Z" fill="#fff"/>
          <rect id="Rectangle_225" data-name="Rectangle 225" width="1.555" height="8.675" transform="translate(166.988 187.141) rotate(-39.612)" fill="#fff"/>
          <path id="Path_2794" data-name="Path 2794" d="M169.947,195.842l-1.268.9-4.251-5.99-2.418,1.717-.645-1.168,3.564-2.529Z" fill="#fff"/>
          <path id="Path_2795" data-name="Path 2795" d="M163.264,198.706l1.588-.952.7,1.165-4.511,2.7-.7-1.166,1.588-.951-3.757-6.269,1.333-.8Z" fill="#fff"/>
          <path id="Path_2796" data-name="Path 2796" d="M153.443,203.823l1.707-.721.528,1.252-4.846,2.047-.53-1.252,1.708-.721-2.846-6.737,1.432-.6Z" fill="#fff"/>
          <path id="Path_2797" data-name="Path 2797" d="M142.08,204.8c-.952-3.024-.545-4.6,1.362-5.2,1.78-.561,3.058.463,4.021,3.525.939,2.984.307,4.5-1.4,5.041-1.8.568-3.081-.494-3.984-3.366m3.868-1.184c-.617-1.962-1.283-3.036-2.15-2.763-.914.288-.834,1.451-.191,3.5.605,1.922,1.2,2.835,2.1,2.553s.825-1.443.245-3.287" fill="#fff"/>
          <path id="Path_2798" data-name="Path 2798" d="M136.365,210.452l-2.232.336c-2.2.331-3.272-.953-3.678-3.649-.434-2.894.15-4.584,2.508-4.939l2.115-.317Zm-2.647-7.083-.548.082c-1.2.18-1.477,1.145-1.132,3.443.3,1.972.794,2.784,2.028,2.6l.56-.084Z" fill="#fff"/>
          <path id="Path_2799" data-name="Path 2799" d="M123.412,206.929l2.779-.138-.125-2.515-3.12.156.124-1.344,4.46-.222.431,8.659-4.441.22-.067-1.357,2.91-.144-.105-2.108-2.779.138Z" fill="#fff"/>
          <path id="Path_2800" data-name="Path 2800" d="M120.495,211.739l-1.554-.062.3-7.338-2.966-.121.2-1.317,4.369.176Z" fill="#fff"/>
          <rect id="Rectangle_226" data-name="Rectangle 226" width="8.674" height="1.555" transform="translate(111.902 211.119) rotate(-83.453)" fill="#fff"/>
          <path id="Path_2801" data-name="Path 2801" d="M108.879,201.881l.429,8.924-1.64-.324-.066-3.763c-.022-1.181-.008-2.487.065-3.4l-.024-.005c-.274.844-.837,2.054-1.295,3.121l-1.475,3.49-1.594-.315,3.824-8.083Z" fill="#fff"/>
          <path id="Path_2802" data-name="Path 2802" d="M97.937,203.061l2.665.8.726-2.411-2.993-.9.569-1.225,4.276,1.288-2.5,8.3-4.258-1.281.392-1.3,2.79.84.608-2.021-2.664-.8Z" fill="#fff"/>
          <path id="Path_2803" data-name="Path 2803" d="M94,201.417,95.407,198l1.425.588-3.3,8.015-2.455-1.012a2.182,2.182,0,0,1-1.379-3.131,1.952,1.952,0,0,1,1.793-1.4c-.5-.547-.578-1.194-.09-2.379l.132-.32a10.275,10.275,0,0,0,.584-1.722l1.388.572a7.136,7.136,0,0,1-.56,1.749l-.12.291c-.442,1.072-.346,1.535.561,1.909Zm-.479,1.162-.673-.277a1.107,1.107,0,0,0-1.693.686,1.033,1.033,0,0,0,.614,1.528l.815.336Z" fill="#fff"/>
          <path id="Path_2804" data-name="Path 2804" d="M80.714,193.968c-.783,1.256-1.7,2.678-2.238,3.5l.029.019c1.125-1.239,3.078-3.468,5.043-5.55l1.189.74c-1.025,2.442-2.248,5.346-2.9,6.916l.041.025c.49-.886,1.418-2.448,2.211-3.719l1.625-2.611,1.2.75-4.582,7.357-1.969-1.225c.881-2.274,1.822-4.538,2.342-5.7l-.01-.007c-.771.906-2.613,2.835-4.207,4.542l-1.924-1.2,4.58-7.357,1.266.786Z" fill="#fff"/>
          <path id="Path_2805" data-name="Path 2805" d="M72.2,189.047c1.981-2.479,3.516-3.021,5.081-1.772,1.459,1.165,1.32,2.8-.684,5.305-1.951,2.446-3.566,2.77-4.965,1.654-1.478-1.18-1.31-2.834.568-5.187m3.145,2.551c1.283-1.608,1.8-2.76,1.092-3.329-.748-.6-1.67.118-3.01,1.794-1.256,1.576-1.684,2.578-.947,3.166s1.658-.121,2.865-1.631" fill="#fff"/>
          <path id="Path_2806" data-name="Path 2806" d="M69.56,185.626l2.6-2.635,1.1,1.084-6.086,6.178-1.89-1.862a2.181,2.181,0,0,1-.1-3.421,1.95,1.95,0,0,1,2.187-.619c-.257-.695-.086-1.325.815-2.237l.242-.247a10.185,10.185,0,0,0,1.191-1.375l1.071,1.053a7.277,7.277,0,0,1-1.178,1.41l-.223.224c-.812.826-.9,1.292-.2,1.98Zm-.883.9-.518-.511a1.109,1.109,0,0,0-1.828,0,1.038,1.038,0,0,0-.008,1.649l.629.618Z" fill="#fff"/>
          <path id="Path_2807" data-name="Path 2807" d="M62.384,177.959l1.781,2.136,1.934-1.612-2-2.4,1.148-.709,2.858,3.429-6.658,5.55L58.6,180.941l1.043-.87,1.865,2.238,1.621-1.351-1.781-2.137Z" fill="#fff"/>
          <path id="Path_2808" data-name="Path 2808" d="M76.4,69.578l.924,1.271A75.235,75.235,0,0,0,55.633,168.1l-1.375.762A76.806,76.806,0,0,1,76.4,69.578" fill="#fff"/>
          <rect id="Rectangle_227" data-name="Rectangle 227" width="10.214" height="1.571" transform="translate(50.08 170.155) rotate(-27.772)" fill="#fff"/>
          <rect id="Rectangle_228" data-name="Rectangle 228" width="1.571" height="10.214" transform="translate(73.169 66.627) rotate(-37.06)" fill="#be0d30"/>
          <path id="Path_2809" data-name="Path 2809" d="M121.682,45.3A86.362,86.362,0,1,1,35.32,131.66,86.459,86.459,0,0,1,121.682,45.3m0,171.676A85.314,85.314,0,1,0,36.367,131.66a85.411,85.411,0,0,0,85.315,85.314" fill="#fff"/>
          <path id="Path_2810" data-name="Path 2810" d="M121.682,26.953A104.706,104.706,0,1,1,16.975,131.659,104.825,104.825,0,0,1,121.682,26.953m0,205.223A100.516,100.516,0,1,0,21.165,131.659,100.631,100.631,0,0,0,121.682,232.176" fill="#fff"/>
          <path id="Path_2811" data-name="Path 2811" d="M121.682,64.923a66.736,66.736,0,1,1-66.736,66.736,66.811,66.811,0,0,1,66.736-66.736m0,132.425a65.689,65.689,0,1,0-65.689-65.689,65.763,65.763,0,0,0,65.689,65.689" fill="#fff"/>
        </g>
      </g>
    </g>
  </g>
</svg>
